<svg id="Слой_1" data-name="Слой 1" xmlns="http://www.w3.org/2000/svg" viewBox="0 0 100 100"><defs><style>.cls-1{fill:none;stroke:#330522;stroke-linecap:round;stroke-miterlimit:10;stroke-width:6px;}</style></defs><path class="cls-1" d="M76.49,35a26.5,26.5,0,0,0-53-1.62c-.28,4.84,2.62,11.15,5.12,15.62a26.89,26.89,0,0,1,3.46,13.13v.19a4.18,4.18,0,0,0,4.18,4.18H63.68a4.18,4.18,0,0,0,4.18-4.18h0A26.47,26.47,0,0,1,71.43,49C73.8,44.91,76.49,39.32,76.49,35Z"/><path class="cls-1" d="M37.41,76.5H61.56A4.43,4.43,0,0,1,66,80.93v2.76a7.81,7.81,0,0,1-7.81,7.81H40.8A7.81,7.81,0,0,1,33,83.69V80.93A4.43,4.43,0,0,1,37.41,76.5Z"/></svg>