<svg id="Слой_1" data-name="Слой 1" xmlns="http://www.w3.org/2000/svg" viewBox="0 0 100 100"><defs><style>.cls-1{fill:none;stroke:#330522;stroke-linecap:round;stroke-miterlimit:10;stroke-width:6px;}.cls-2{fill:#330522;}</style></defs><circle class="cls-1" cx="50" cy="50" r="40"/><path class="cls-2" d="M47.63,68.22a4.84,4.84,0,0,1-3.37-1.13,3.81,3.81,0,0,1-1.26-3,7,7,0,0,1,.15-1.29L47.48,41.2h7.2L50.41,62.41h3l-1.13,5.81Zm4.12-30a4.48,4.48,0,0,1-2.81-.72,2.38,2.38,0,0,1-.9-2,5.75,5.75,0,0,1,.11-1c.07-.38.13-.72.2-1a7.4,7.4,0,0,1,.47-1.34A3.55,3.55,0,0,1,49.69,31a4.57,4.57,0,0,1,1.44-.85,6.21,6.21,0,0,1,2.16-.33,4.48,4.48,0,0,1,2.81.72,2.37,2.37,0,0,1,.9,2,5.67,5.67,0,0,1-.1,1c-.07.38-.14.72-.21,1a7.09,7.09,0,0,1-.46,1.34A3.61,3.61,0,0,1,55.35,37a4.29,4.29,0,0,1-1.44.85A5.9,5.9,0,0,1,51.75,38.22Z"/></svg>